HIERARCHY
ROOT reference
{
  OFFSET 0 0 0
  CHANNELS 6 Xposition Yposition Zposition Zrotation Xrotation Yrotation
  JOINT Hips
  {
    OFFSET 12.026 91.1451 110.155
    CHANNELS 6 Xposition Yposition Zposition Zrotation Xrotation Yrotation
    JOINT Spine
    {
      OFFSET 0 8.22665 0
      CHANNELS 6 Xposition Yposition Zposition Zrotation Xrotation Yrotation
      JOINT Spine1
      {
        OFFSET 0 24.451 0
        CHANNELS 6 Xposition Yposition Zposition Zrotation Xrotation Yrotation
        JOINT Neck
        {
          OFFSET 0 24.3506 2.21369
          CHANNELS 6 Xposition Yposition Zposition Zrotation Xrotation Yrotation
          JOINT Head
          {
            OFFSET 0 14.0455 -2.0065
            CHANNELS 6 Xposition Yposition Zposition Zrotation Xrotation Yrotation
            End Site
            {
              OFFSET 0 25.0812 0
            }
          }
        }
        JOINT LeftShoulder
        {
          OFFSET 4.0594 22.2558 -0.272799
          CHANNELS 6 Xposition Yposition Zposition Zrotation Xrotation Yrotation
          JOINT LeftArm
          {
            OFFSET 12.0298 0 0
            CHANNELS 6 Xposition Yposition Zposition Zrotation Xrotation Yrotation
            JOINT LeftForeArm
            {
              OFFSET 31.2689 0 0
              CHANNELS 6 Xposition Yposition Zposition Zrotation Xrotation Yrotation
              JOINT LeftHand
              {
                OFFSET 28.0275 0 0
                CHANNELS 6 Xposition Yposition Zposition Zrotation Xrotation Yrotation
                End Site
                {
                  OFFSET 15.0487 0 0
                }
              }
            }
          }
        }
        JOINT RightShoulder
        {
          OFFSET -3.96464 22.2558 -0.272799
          CHANNELS 6 Xposition Yposition Zposition Zrotation Xrotation Yrotation
          JOINT RightArm
          {
            OFFSET -12.0298 0 0
            CHANNELS 6 Xposition Yposition Zposition Zrotation Xrotation Yrotation
            JOINT RightForeArm
            {
              OFFSET -31.2689 0 0
              CHANNELS 6 Xposition Yposition Zposition Zrotation Xrotation Yrotation
              JOINT RightHand
              {
                OFFSET -28.0275 0 0
                CHANNELS 6 Xposition Yposition Zposition Zrotation Xrotation Yrotation
                End Site
                {
                  OFFSET -15.0487 0 0
                }
              }
            }
          }
        }
      }
    }
    JOINT LeftUpLeg
    {
      OFFSET 10.0325 0 0
      CHANNELS 6 Xposition Yposition Zposition Zrotation Xrotation Yrotation
      JOINT LeftLeg
      {
        OFFSET 0 -38.4033 0
        CHANNELS 6 Xposition Yposition Zposition Zrotation Xrotation Yrotation
        JOINT LeftFoot
        {
          OFFSET 0 -44.1642 0
          CHANNELS 6 Xposition Yposition Zposition Zrotation Xrotation Yrotation
          JOINT LeftToeBase
          {
            OFFSET 0 -6.52112 15.0487
            CHANNELS 6 Xposition Yposition Zposition Zrotation Xrotation Yrotation
            End Site
            {
              OFFSET 0 0 4.013
            }
          }
        }
      }
    }
    JOINT RightUpLeg
    {
      OFFSET -10.0325 0 0
      CHANNELS 6 Xposition Yposition Zposition Zrotation Xrotation Yrotation
      JOINT RightLeg
      {
        OFFSET 0 -38.4033 0
        CHANNELS 6 Xposition Yposition Zposition Zrotation Xrotation Yrotation
        JOINT RightFoot
        {
          OFFSET 0 -44.1642 0
          CHANNELS 6 Xposition Yposition Zposition Zrotation Xrotation Yrotation
          JOINT RightToeBase
          {
            OFFSET 0 -6.52112 15.0487
            CHANNELS 6 Xposition Yposition Zposition Zrotation Xrotation Yrotation
            End Site
            {
              OFFSET 0 0 4.013
            }
          }
        }
      }
    }
  }
}
MOTION
Frames:	10
Frame Time:	0.004
0 0 0 0 0 -0 -20.7715 85.4696 -213.389 1.28643 -0.307387 1.99362 0 8.22665 0 -0.549305 -5.87838 1.08579 0 24.451 -2.84217e-014 -1.66366 0.476431 1.118 1.77636e-015 24.3506 2.21369 8.40472 19.7283 13.3198 0 14.0455 -2.0065 -12.6455 -1.47523 12.2092 4.0594 22.2558 -0.272799 18.9973 -0.687378 -5.01471 12.0298 -2.84217e-014 0 -21.1932 -0.0962827 1.15269 31.2689 0 0 0.653075 -5.81167 3.90229 28.0275 2.84217e-014 -2.84217e-014 23.2003 -4.67354 5.72801 -3.96464 22.2558 -0.272799 -16.8179 -2.10142 2.17191 -12.0298 0 -2.84217e-014 13.1874 7.96698 9.17549 -31.2689 2.84217e-014 2.84217e-014 0.513322 -1.70832 -4.41791 -28.0275 0 2.84217e-014 -8.74446 -1.79885 1.44425 10.0325 0 0 0.611995 5.205 0.403533 -8.88178e-016 -38.4033 0 -2.85706 3.33123 -3.54774 0 -44.1642 0 2.08476 -8.59235 15.301 0 -6.52112 15.0487 1.73937e-016 -9.93923e-017 -0 -10.0325 1.42109e-014 0 -3.53369 -0.157228 -0.435331 -7.10543e-015 -38.4033 0 0.995575 18.0425 0.427673 -3.55271e-015 -44.1642 -2.84217e-014 2.96993 -15.5993 -12.1185 0 -6.52112 15.0487 1.98785e-016 0 1.59028e-015 
0 0 0 0 0 -0 -20.7706 85.4696 -213.389 1.28741 -0.312272 1.99362 3.55271e-015 8.22665 2.84217e-014 -0.549288 -5.87932 1.08579 0 24.451 -2.84217e-014 -1.66727 0.481109 1.118 -3.55271e-015 24.3506 2.21369 8.4111 19.7417 13.3209 0 14.0455 -2.0065 -12.6645 -1.49257 12.2093 4.0594 22.2558 -0.272799 18.9832 -0.687378 -5.01471 12.0298 0 -2.84217e-014 -21.1932 -0.0962827 1.15269 31.2689 0 0 0.65369 -5.82064 3.90235 28.0275 0 -2.84217e-014 23.208 -4.6735 5.73347 -3.96464 22.2558 -0.272799 -16.8184 -2.0862 2.17189 -12.0298 0 0 13.1935 7.91406 9.19162 -31.2689 0 -2.84217e-014 0.535719 -1.70756 -4.41791 -28.0275 0 2.84217e-014 -8.78175 -1.79603 1.42177 10.0325 1.42109e-014 0 0.613468 5.21452 0.382537 0 -38.4033 0 -2.86115 3.32878 -3.54417 0 -44.1642 0 2.05323 -8.59895 15.3225 0 -6.52112 15.0487 4.96962e-017 -9.93923e-017 -3.18055e-015 -10.0325 0 2.84217e-014 -3.53458 -0.142491 -0.409096 3.55271e-015 -38.4033 0 1.00389 18.0294 0.355143 3.55271e-015 -44.1642 0 3.02767 -15.5908 -12.0778 1.42109e-014 -6.52112 15.0487 2.20695e-032 -7.95139e-016 1.59028e-015 
0 0 0 0 0 -0 -20.7877 85.4696 -213.4 1.25851 -0.260844 1.99361 -1.77636e-015 8.22665 0 -0.548616 -5.91458 1.08586 0 24.451 -2.84217e-014 -1.64195 0.457781 1.118 0 24.3506 2.21369 8.39033 19.7302 13.3199 2.84217e-014 14.0455 -2.0065 -12.6267 -1.47241 12.2092 4.0594 22.2558 -0.272799 18.9923 -0.698602 -5.01472 12.0298 -2.84217e-014 0 -21.1934 -0.088814 1.15269 31.2689 0 2.84217e-014 0.654155 -5.82741 3.9024 28.0275 2.84217e-014 -2.84217e-014 23.2207 -4.67341 5.74396 -3.96464 22.2558 -0.272799 -16.8168 -2.09545 2.1719 -12.0298 -2.84217e-014 2.84217e-014 13.1983 7.93686 9.18723 -31.2689 0 0 0.523571 -1.68762 -4.41787 -28.0275 -2.84217e-014 0 -8.7321 -1.77748 1.44264 10.0325 0 -2.84217e-014 0.660328 5.13345 0.440262 -2.66454e-015 -38.4033 2.84217e-014 -2.86934 3.37534 -3.62612 0 -44.1642 0 2.04225 -8.60521 15.3333 0 -6.52112 15.0487 7.45443e-017 0 -0 -10.0325 0 0 -3.47917 -0.213171 -0.399415 -3.55271e-015 -38.4033 -2.84217e-014 0.97521 18.0415 0.360079 1.06581e-014 -44.1642 0 3.05858 -15.5453 -12.0985 -1.42109e-014 -6.52112 15.0487 -4.96962e-016 0 1.59028e-015 
0 0 0 0 0 -0 -20.788 85.4696 -213.396 1.25591 -0.260178 1.99361 0 8.22665 2.84217e-014 -0.548488 -5.9213 1.08587 -5.32907e-015 24.451 2.84217e-014 -1.64489 0.467939 1.118 -1.77636e-015 24.3506 2.21369 8.37813 19.737 13.3205 0 14.0455 -2.0065 -12.6233 -1.49761 12.2094 4.0594 22.2558 -0.272799 18.9904 -0.696495 -5.01472 12.0298 -2.84217e-014 2.84217e-014 -21.193 -0.106162 1.14907 31.2689 2.84217e-014 0 0.654462 -5.83189 3.90243 28.0275 0 0 23.2012 -4.67795 5.74753 -3.96464 22.2558 -0.272799 -16.8224 -2.10627 2.17192 -12.0298 -2.84217e-014 0 13.2073 7.94522 9.18324 -31.2689 0 0 0.521958 -1.69583 -4.41788 -28.0275 0 0 -8.75613 -1.78507 1.4317 10.0325 0 0 0.67153 5.13383 0.421874 -1.77636e-015 -38.4033 2.84217e-014 -2.89141 3.37943 -3.62472 0 -44.1642 0 2.08531 -8.60714 15.3735 0 -6.52112 15.0487 2.48481e-017 0 3.18055e-015 -10.0325 0 2.84217e-014 -3.47777 -0.211819 -0.415439 7.10543e-015 -38.4033 -2.84217e-014 0.97182 18.038 0.320706 -3.55271e-015 -44.1642 0 3.08196 -15.529 -12.0462 0 -6.52112 15.0487 4.96962e-017 -1.19271e-015 -0 
0 0 0 0 0 -0 -20.7723 85.4696 -213.379 1.28606 -0.308899 1.99362 0 8.22665 -2.84217e-014 -0.549183 -5.8848 1.0858 -1.77636e-015 24.451 0 -1.66653 0.474394 1.118 -1.77636e-015 24.3506 2.21369 8.36984 19.7643 13.3213 0 14.0455 -2.0065 -12.651 -1.5199 12.2095 4.0594 22.2558 -0.272799 18.9747 -0.692713 -5.01471 12.0298 0 0 -21.1931 -0.102476 1.1536 31.2689 0 0 0.655312 -5.84429 3.90252 28.0275 -2.84217e-014 2.84217e-014 23.2096 -4.68682 5.76297 -3.96464 22.2558 -0.272799 -16.8272 -2.10488 2.16944 -12.0298 0 0 13.2062 7.93517 9.18901 -31.2689 -2.84217e-014 2.84217e-014 0.522071 -1.69868 -4.41789 -28.0275 0 0 -8.73673 -1.78779 1.43352 10.0325 -1.42109e-014 -2.84217e-014 0.617023 5.22318 0.393853 8.88178e-016 -38.4033 2.84217e-014 -2.86026 3.3283 -3.5851 1.77636e-015 -44.1642 -2.84217e-014 2.06465 -8.60636 15.3483 0 -6.52112 15.0487 1.98785e-016 -9.93923e-017 -0 -10.0325 0 0 -3.5309 -0.139176 -0.409504 7.10543e-015 -38.4033 -2.84217e-014 1.00029 18.0241 0.334617 -3.55271e-015 -44.1642 -2.84217e-014 3.05003 -15.5936 -12.0521 0 -6.52112 15.0487 -9.93923e-017 0 1.59028e-015 
0 0 0 0 0 -0 -20.7721 85.4696 -213.379 1.28679 -0.29703 1.99161 1.77636e-015 8.22665 2.84217e-014 -0.548802 -5.89535 1.08582 5.32907e-015 24.451 -2.84217e-014 -1.67286 0.474319 1.12088 0 24.3506 2.21369 8.37178 19.755 13.3188 0 14.0455 -2.0065 -12.6471 -1.49978 12.2094 4.0594 22.2558 -0.272799 18.9787 -0.705475 -5.01472 12.0298 -2.84217e-014 0 -21.1931 -0.0991219 1.1595 31.2689 0 0 0.655009 -5.83987 3.90249 28.0275 -2.84217e-014 0 23.2106 -4.68399 5.75474 -3.96464 22.2558 -0.272799 -16.8178 -2.10607 2.16877 -12.0298 -2.84217e-014 0 13.1952 7.92075 9.19184 -31.2689 0 -2.84217e-014 0.525302 -1.67113 -4.41783 -28.0275 0 2.84217e-014 -8.71716 -1.75911 1.43113 10.0325 0 0 0.619111 5.20773 0.364344 0 -38.4033 -2.84217e-014 -2.86988 3.3315 -3.57585 0 -44.1642 0 2.03696 -8.58927 15.3744 7.10543e-015 -6.52112 15.0487 9.93923e-017 -9.93923e-017 -3.18055e-015 -10.0325 1.42109e-014 2.84217e-014 -3.53421 -0.15901 -0.445831 -7.10543e-015 -38.4033 -2.84217e-014 0.990383 18.0423 0.432804 7.10543e-015 -44.1642 0 3.01408 -15.6034 -12.1162 0 -6.52112 15.0487 -2.48481e-016 0 -3.18055e-015 
0 0 0 0 0 -0 -20.7729 85.4694 -213.375 1.28788 -0.304801 1.9889 1.77636e-015 8.22665 0 -0.548706 -5.89063 1.08587 1.77636e-015 24.451 0 -1.68023 0.474078 1.12141 1.77636e-015 24.3506 2.21369 8.3684 19.7714 13.3185 0 14.0455 -2.0065 -12.6317 -1.52069 12.2095 4.0594 22.2558 -0.272799 18.9836 -0.698662 -5.01795 12.0298 -5.68434e-014 0 -21.1932 -0.0958675 1.16282 31.2689 0 2.84217e-014 0.65608 -5.85549 3.9026 28.0275 2.84217e-014 0 23.2161 -4.6968 5.76846 -3.96464 22.2558 -0.272799 -16.8137 -2.09254 2.17799 -12.0298 -2.84217e-014 0 13.198 7.90612 9.19557 -31.2689 0 2.84217e-014 0.526088 -1.67813 -4.41784 -28.0275 0 2.84217e-014 -8.70475 -1.76648 1.42821 10.0325 0 0 0.620339 5.22291 0.403518 8.88178e-016 -38.4033 0 -2.86292 3.3252 -3.58025 1.77636e-015 -44.1642 2.84217e-014 2.06839 -8.60927 15.3411 0 -6.52112 15.0487 -7.45443e-017 0 -0 -10.0325 -1.42109e-014 2.84217e-014 -3.53393 -0.141384 -0.377411 -3.55271e-015 -38.4033 0 1.0151 18.0335 0.383369 3.55271e-015 -44.1642 -2.84217e-014 3.06605 -15.6085 -12.1241 0 -6.52112 15.0487 2.98177e-016 3.97569e-016 -3.18055e-015 
0 0 0 0 0 -0 -20.7739 85.4692 -213.37 1.2882 -0.290387 1.98603 -1.77636e-015 8.22665 0 -0.546528 -5.90957 1.08597 -1.77636e-015 24.451 0 -1.67606 0.473697 1.12192 3.55271e-015 24.3506 2.21369 8.37206 19.7649 13.3164 0 14.0455 -2.0065 -12.6353 -1.50859 12.2094 4.0594 22.2558 -0.272799 18.973 -0.70966 -5.00434 12.0298 2.84217e-014 -2.84217e-014 -21.1933 -0.093208 1.15193 31.2689 5.68434e-014 0 0.646425 -5.86538 3.90651 28.0275 -2.84217e-014 -2.84217e-014 23.2514 -4.7026 5.77796 -3.96464 22.2558 -0.272799 -16.8262 -2.10841 2.17526 -12.0298 0 2.84217e-014 13.2109 7.91395 9.19876 -31.2689 2.84217e-014 0 0.528445 -1.66069 -4.4178 -28.0275 -2.84217e-014 0 -8.68506 -1.74851 1.42495 10.0325 -2.84217e-014 -2.84217e-014 0.608787 5.21451 0.376511 1.77636e-015 -38.4033 2.84217e-014 -2.8565 3.31902 -3.54158 -1.77636e-015 -44.1642 0 2.06698 -8.59418 15.3308 0 -6.52112 15.0487 -1.49089e-016 9.93923e-017 -3.18055e-015 -10.0325 -1.42109e-014 0 -3.53409 -0.15466 -0.402335 7.10543e-015 -38.4033 -2.84217e-014 1.00094 18.0064 0.312591 -3.55271e-015 -44.1642 -2.84217e-014 3.06276 -15.5725 -12.0247 0 -6.52112 15.0487 0 7.95139e-016 -0 
0 0 0 0 0 -0 -20.7748 85.469 -213.368 1.2893 -0.298659 1.98327 -5.32907e-015 8.22665 2.84217e-014 -0.536239 -5.89778 1.08601 -3.55271e-015 24.451 0 -1.68735 0.473205 1.12243 3.55271e-015 24.3506 2.21369 8.3824 19.7747 13.3161 0 14.0455 -2.0065 -12.6566 -1.51423 12.2095 4.0594 22.2558 -0.272799 18.9711 -0.710393 -4.99879 12.0298 -2.84217e-014 0 -21.1933 -0.093686 1.14853 31.2689 0 -2.84217e-014 0.642942 -5.85606 3.9103 28.0275 -2.84217e-014 0 23.2601 -4.69175 5.78257 -3.96464 22.2558 -0.272799 -16.8149 -2.10725 2.17726 -12.0298 0 0 13.202 7.91461 9.19987 -31.2689 -2.84217e-014 0 0.528004 -1.6729 -4.41783 -28.0275 2.84217e-014 -2.84217e-014 -8.69309 -1.76033 1.42164 10.0325 -1.42109e-014 2.84217e-014 0.619461 5.21516 0.386919 0 -38.4033 -2.84217e-014 -2.85993 3.31851 -3.56857 -1.77636e-015 -44.1642 -2.84217e-014 2.07747 -8.60547 15.3466 -7.10543e-015 -6.52112 15.0487 2.48481e-017 1.98785e-016 3.18055e-015 -10.0325 0 0 -3.53404 -0.146853 -0.403749 -3.55271e-015 -38.4033 0 1.00977 18.0334 0.375595 -3.55271e-015 -44.1642 0 3.0319 -15.608 -12.097 0 -6.52112 15.0487 -1.49089e-016 -3.97569e-016 -1.59028e-015 
0 0 0 0 0 -0 -20.7754 85.4688 -213.365 1.2898 -0.289317 1.98083 -3.55271e-015 8.22665 0 -0.534401 -5.91274 1.0861 3.55271e-015 24.451 0 -1.68343 0.472627 1.12291 -1.77636e-015 24.3506 2.21369 8.36623 19.7813 13.3159 0 14.0455 -2.0065 -12.6449 -1.52401 12.2095 4.0594 22.2558 -0.272799 18.9647 -0.711604 -4.99902 12.0298 0 2.84217e-014 -21.1929 -0.11136 1.14809 31.2689 -2.84217e-014 0 0.636781 -5.85028 3.91279 28.0275 -2.84217e-014 0 23.2714 -4.68683 5.77456 -3.96464 22.2558 -0.272799 -16.8307 -2.11754 2.17987 -12.0298 0 0 13.2206 7.91226 9.20056 -31.2689 -2.84217e-014 0 0.530204 -1.65255 -4.41779 -28.0275 2.84217e-014 2.84217e-014 -8.68873 -1.73967 1.41709 10.0325 0 0 0.615111 5.21794 0.421497 1.77636e-015 -38.4033 0 -2.85832 3.31863 -3.57425 0 -44.1642 -2.84217e-014 2.04602 -8.60316 15.3341 0 -6.52112 15.0487 -4.96962e-017 0 -1.59028e-015 -10.0325 0 2.84217e-014 -3.53413 -0.156589 -0.42161 -7.10543e-015 -38.4033 0 0.999751 18.0401 0.424224 3.55271e-015 -44.1642 0 3.05291 -15.6047 -12.1293 0 -6.52112 15.0487 4.96962e-017 -3.97569e-016 1.59028e-015 
